<?xml version="1.0" encoding="UTF-8"?>
<svg xmlns="http://www.w3.org/2000/svg" viewBox="0 0 400 220" role="img" aria-label="ThornFit">
  <title>ThornFit</title>
  <g fill="#000000">
    <path transform="translate(153.400 150.000) scale(0.200000 -0.200000)" d="M229 625H160V0H71V625H2V699H229Z"/>
    <path transform="translate(197.600 150.000) scale(0.200000 -0.200000)" d="M230 699V0H141V316H103V0H14V699H103V382H141V699Z"/>
    <path transform="translate(244.400 150.000) scale(0.200000 -0.200000)" d="M113 -6Q95 -6 77.0 0.0Q59 6 44.5 18.5Q30 31 21.5 51.0Q13 71 13 98V601Q13 628 21.5 648.0Q30 668 44.5 680.5Q59 693 77.0 699.0Q95 705 113 705H131Q150 705 168.0 699.0Q186 693 200.0 680.5Q214 668 222.5 648.0Q231 628 231 601V98Q231 71 222.5 51.0Q214 31 200.0 18.5Q186 6 168.0 0.0Q150 -6 131 -6ZM120 631Q102 631 102 588V111Q102 68 120 68H124Q142 68 142 111V588Q142 631 124 631Z"/>
    <path transform="translate(291.200 150.000) scale(0.200000 -0.200000)" d="M232 417Q232 385 222.0 369.5Q212 354 197 349Q212 345 222.0 329.5Q232 314 232 282V131Q232 59 237.5 30.5Q243 2 245 0H156Q148 12 145.5 43.0Q143 74 143 131V274Q143 316 126 316H103V0H14V699H133Q175 699 203.5 672.0Q232 645 232 596ZM126 382Q143 382 143 422V582Q143 625 124 625H103V382Z"/>
    <path transform="translate(339.600 150.000) scale(0.200000 -0.200000)" d="M166 0 89 422H88V0H13V699H112L182 287H183V699H264V0Z"/>
    <path transform="translate(351.560 215.000) scale(0.080000 -0.080000)" d="M103 625V382H170V316H103V0H14V699H188V625Z"/>
    <path transform="translate(367.160 215.000) scale(0.080000 -0.080000)" d="M103 699V0H14V699Z"/>
    <path transform="translate(376.520 215.000) scale(0.080000 -0.080000)" d="M229 625H160V0H71V625H2V699H229Z"/>
  </g>
</svg>
