<?xml version="1.0" encoding="UTF-8"?>
<svg width="64px" height="63px" viewBox="0 0 64 63" version="1.1" xmlns="http://www.w3.org/2000/svg" xmlns:xlink="http://www.w3.org/1999/xlink">
    <title>AMEX</title>
    <g id="AMEX" stroke="none" stroke-width="1" fill="none" fill-rule="evenodd">
        <rect fill="#FFFFFF" x="0" y="0" width="64" height="63"></rect>
        <g id="AXP_BlueBoxLogo_Alternate_REGULARscale_RGB_DIGITAL_700x700" fill="#006FCF" fill-rule="nonzero">
            <g id="Group" transform="translate(32.500000, 31.500000) scale(-1, 1) rotate(-180.000000) translate(-32.500000, -31.500000) ">
                <path d="M0,31.5 L0,-4.54747351e-13 L32.0563001,-4.54747351e-13 L64.1126002,-4.54747351e-13 L64.1126002,4.98697395 L64.1126002,9.9739479 L60.2145541,9.9739479 L56.316508,9.9739479 L54.3546624,12.1328657 L52.3799944,14.2791583 L52.0722539,13.9256513 C51.9055611,13.7362725 51.0079847,12.7641283 50.0975858,11.7667335 L48.4306582,9.9739479 L35.6337832,9.9739479 L22.8240857,9.9739479 L22.8240857,20.0741483 L22.8240857,30.1743487 L18.7465243,30.1995992 L14.6817854,30.2374749 L19.7466809,41.5370741 L24.8243988,52.8366733 L29.7867141,52.8366733 L34.7618518,52.8366733 L36.4544245,49.0869739 L38.1469971,45.3372745 L38.1854647,49.1122244 L38.2111097,52.8997996 L44.3402743,52.8997996 L50.4566164,52.8997996 L51.4695954,50.0591182 C52.0337863,48.4935872 52.5210421,47.2563126 52.5723322,47.3068136 C52.6236222,47.3573146 53.085233,48.5693387 53.5981338,49.995992 C54.1110346,51.4226453 54.5598228,52.6599198 54.5854678,52.7482966 C54.6367579,52.8619238 55.7138496,52.8997996 59.3810903,52.8997996 L64.1126002,52.8997996 L64.1126002,57.9498998 L64.1126002,63 L32.0563001,63 L0,63 L0,31.5 Z" id="Path"></path>
                <path d="M26.555439,50.096994 C26.4913264,49.9328657 24.7089961,45.9559118 22.5932803,41.2466934 L18.7465243,32.6993988 L21.4392535,32.7246493 L24.1319827,32.7625251 L24.8500438,34.4921844 L25.5809275,36.2344689 L29.7482465,36.2344689 L33.9155655,36.2344689 L34.6464491,34.4921844 L35.3773328,32.7625251 L40.5063408,32.7246493 L45.6481713,32.6993988 L45.6609939,38.8478958 C45.6609939,43.08998 45.6994614,44.9458918 45.7892191,44.8196393 C45.8661542,44.7186373 46.9176008,41.9663327 48.1357402,38.6963928 L50.3540362,32.7625251 L52.5082196,32.7625251 L54.6495804,32.7625251 L56.9191665,38.8478958 L59.17593,24.9206413 L59.2143975,38.81002 L59.2400426,32.6993988 L61.6763214,32.6993988 L64.1126002,32.6993988 L64.1126002,41.5370741 L64.1126002,50.3747495 L60.3556018,50.3747495 L56.5857809,50.3747495 L54.6111129,44.9458918 C53.5211986,41.9663327 52.5979772,39.5170341 52.5595096,39.5170341 C52.5210421,39.5170341 51.5978206,41.9663327 50.5079064,44.9458918 L48.5332384,50.3747495 L44.7249499,50.3747495 L40.9038389,50.3747495 L40.8781939,41.5749499 L40.8397263,32.7751503 L36.9160352,41.5496994 L32.9923441,50.3116232 L29.8251816,50.349499 L26.6708417,50.3747495 L26.555439,50.096994 Z M31.017676,43.0016032 C31.658802,41.4865731 32.1845253,40.2240481 32.1845253,40.1987976 C32.1845253,40.1735471 31.0817886,40.1482966 29.735424,40.1482966 C27.4530154,40.1482966 27.2863226,40.1609218 27.3632578,40.3755511 C27.9915612,42.0042084 29.7097789,45.9180361 29.7738915,45.8549098 C29.8123591,45.8044088 30.37655,44.5292585 31.017676,43.0016032 Z" id="Shape"></path>
                <path d="M25.6450401,21.3366733 L25.6450401,12.498998 L33.2744395,12.498998 L40.9038389,12.498998 L40.9038389,14.5190381 L40.9038389,16.5390782 L35.7107183,16.5390782 L30.5175977,16.5390782 L30.5175977,17.9278557 L30.5175977,19.3166333 L35.5824931,19.3166333 L40.6473885,19.3166333 L40.6473885,21.2735471 L40.6473885,23.2304609 L35.5824931,23.2304609 L30.5175977,23.2304609 L30.5175977,24.6823647 L30.5175977,26.1342685 L35.7107183,26.1342685 L40.8910164,26.1342685 L40.929484,28.1164329 L40.9679515,30.0985972 L45.1865606,25.70501 L49.3923472,21.3114228 L48.6358185,20.5286573 C47.6100169,19.4933868 41.5449649,13.1302605 41.2372244,12.7767535 L40.9935966,12.498998 L44.0710014,12.498998 L47.1355837,12.498998 L49.7642003,15.3396794 C51.2003225,16.9052104 52.4056394,18.1677355 52.444107,18.142485 C52.4825745,18.1298597 53.6878914,16.8547094 55.1111911,15.3144289 L57.7141627,12.498998 L60.8556801,12.498998 L64.01002,12.498998 L63.5740544,12.9787575 C63.343249,13.256513 61.4839836,15.2134269 59.4323804,17.3470942 C57.3935997,19.4807615 55.7010271,21.2735471 55.675382,21.3366733 C55.649737,21.3871743 57.5090024,23.3693387 59.8042335,25.7428858 C62.0994646,28.1038076 63.984375,30.0607214 63.984375,30.0985972 C63.984375,30.1490982 62.5995428,30.1743487 60.9197927,30.1743487 L57.8423879,30.1743487 L55.2009488,27.3336673 C53.7391815,25.7681363 52.5338646,24.492986 52.5210421,24.492986 C52.5082196,24.492986 51.3285477,25.7681363 49.8924255,27.3336673 L47.2766314,30.1743487 L36.467247,30.1743487 L25.6450401,30.1743487 L25.6450401,21.3366733 Z" id="Path"></path>
                <path d="M62.4969627,24.7833667 C61.6506764,23.8869739 60.5607621,22.7633267 60.0863289,22.2583166 L59.2143975,21.3492986 L61.6378538,18.8242485 L64.0484876,16.2991984 L64.0869552,18.8116232 C64.0997777,20.2004008 64.0997777,22.4729459 64.0869552,23.8617234 L64.0484876,26.3993988 L62.4969627,24.7833667 Z" id="Path"></path>
            </g>
        </g>
    </g>
</svg>