<?xml version="1.0" encoding="UTF-8"?>
<svg width="99px" height="80px" viewBox="0 0 99 80" version="1.1" xmlns="http://www.w3.org/2000/svg" xmlns:xlink="http://www.w3.org/1999/xlink">
    <title>Maestro wtext</title>
    <g id="Maestro-wtext" stroke="none" stroke-width="1" fill="none" fill-rule="evenodd">
        <g id="mc_symbol" transform="translate(-6.000000, -6.000000)" fill-rule="nonzero">
            <g id="Group" opacity="0" fill="#FFFFFF">
                <rect id="Rectangle" x="0" y="0" width="110.487045" height="72.916092"></rect>
            </g>
            <rect id="Rectangle" fill="#7673C0" x="40.6747727" y="12.7036782" width="29.1459091" height="47.5003448"></rect>
            <path d="M43.6768182,36.458046 C43.6695,27.1904035 47.933171,18.4340764 55.2393182,12.712069 C42.8273237,2.97877908 25.0032018,4.39651692 14.2932664,15.9689344 C3.58333099,27.541352 3.58333099,45.3831308 14.2932664,56.9555483 C25.0032018,68.5279658 42.8273237,69.9457037 55.2393182,60.2124138 C47.9308459,54.4885893 43.6669145,45.7286329 43.6768182,36.458046 Z" id="Path" fill="#EB001B"></path>
            <path d="M101.329545,55.177931 L101.329545,54.2045977 L101.75,54.2045977 L101.75,54.0032184 L100.749318,54.0032184 L100.749318,54.2045977 L101.144545,54.2045977 L101.144545,55.177931 L101.329545,55.177931 Z M103.272045,55.177931 L103.272045,54.0032184 L102.969318,54.0032184 L102.616136,54.8422989 L102.262955,54.0032184 L101.960227,54.0032184 L101.960227,55.177931 L102.178864,55.177931 L102.178864,54.2885057 L102.506818,55.052069 L102.733864,55.052069 L103.061818,54.2885057 L103.061818,55.177931 L103.272045,55.177931 Z" id="Shape" fill="#0099DF"></path>
            <path d="M104.222273,36.458046 C104.222273,48.0234111 97.6038312,58.5733963 87.1785215,63.6273822 C76.7532118,68.6813682 64.3510641,67.3520612 55.2393182,60.204023 C62.5422775,54.4771577 66.8062694,45.7219948 66.8062694,36.4538506 C66.8062694,27.1857064 62.5422775,18.4305434 55.2393182,12.7036782 C64.3510641,5.55563997 76.7532118,4.22633297 87.1785215,9.28031893 C97.6038312,14.3343049 104.222273,24.88429 104.222273,36.4496552 L104.222273,36.458046 Z" id="Path" fill="#0099DF"></path>
        </g>
        <path d="M28.3485602,76.5752893 L28.3485602,71.4787644 C28.4109076,70.6139235 28.0841392,69.7650498 27.4516542,69.1487965 C26.8191692,68.5325431 25.9421602,68.2085323 25.0444611,68.2594594 C23.8583637,68.1844962 22.7239523,68.7378225 22.0839884,69.7034748 C21.5005249,68.7666141 20.4321841,68.2125337 19.2997342,68.2594594 C18.3137183,68.2114051 17.3750406,68.6703366 16.8326736,69.465637 L16.8326736,68.4633204 L15,68.4633204 L15,76.5752893 L16.8502955,76.5752893 L16.8502955,72.0818531 C16.7672762,71.5189727 16.9509058,70.9499095 17.3504897,70.5317644 C17.7500737,70.1136194 18.3233495,69.890618 18.9120533,69.9243242 C20.1279617,69.9243242 20.7447269,70.688803 20.7447269,72.0648647 L20.7447269,76.5752893 L22.5950223,76.5752893 L22.5950223,72.0818531 C22.5186048,71.5202525 22.7045169,70.9549039 23.1026038,70.5383254 C23.5006908,70.1217468 24.0699396,69.8968563 24.6567802,69.9243242 C25.9079323,69.9243242 26.5070756,70.688803 26.5070756,72.0648647 L26.5070756,76.5752893 L28.3485602,76.5752893 Z M38.6573492,72.523552 L38.6573492,68.4718146 L36.8070537,68.4718146 L36.8070537,69.4571428 C36.1766006,68.6728049 35.1922863,68.2299702 34.1637745,68.2679536 C31.7307031,68.2679536 29.7583091,70.1694469 29.7583091,72.5150578 C29.7583091,74.8606686 31.7307031,76.7621619 34.1637745,76.7621619 C35.1922863,76.8001453 36.1766006,76.3573106 36.8070537,75.5729728 L36.8070537,76.5583009 L38.6397273,76.5583009 L38.6573492,72.523552 Z M31.8464997,72.523552 C31.9279964,71.1905292 33.0998034,70.1648024 34.4839554,70.2148878 C35.8681073,70.2649731 36.9568592,71.3724979 36.9344738,72.7076596 C36.9120885,74.0428213 35.7867776,75.1158458 34.4016696,75.1227797 C33.6925264,75.1388133 33.0092143,74.8659664 32.5195132,74.3712336 C32.0298122,73.8765007 31.7790787,73.2057047 31.8288778,72.523552 L31.8464997,72.523552 Z M77.8131257,68.2764478 C78.4164762,68.2749446 79.0145773,68.3844989 79.5753118,68.5992277 C80.1105415,68.805865 80.5984931,69.1117767 81.0114935,69.4996138 C81.4191554,69.8839495 81.7427285,70.3431971 81.9630741,70.8501929 C82.4234082,71.9392803 82.4234082,73.1587889 81.9630741,74.2478763 C81.7429399,74.7549825 81.4193398,75.2142684 81.0114935,75.5984554 C80.5984931,75.9862925 80.1105415,76.2922042 79.5753118,76.4988415 C78.4134667,76.9340751 77.1246754,76.9340751 75.9628302,76.4988415 C75.4300971,76.2924094 74.9449929,75.9864055 74.5354594,75.5984554 C74.131693,75.2127629 73.8112581,74.7537189 73.5926898,74.2478763 C73.1332916,73.1586123 73.1332916,71.9394569 73.5926898,70.8501929 C73.8112581,70.3443503 74.131693,69.8853063 74.5354594,69.4996138 C74.9449929,69.1116637 75.4300971,68.8056598 75.9628302,68.5992277 C76.5437145,68.3671046 77.1666991,68.248719 77.7955038,68.2509338 L77.8131257,68.2764478 Z M77.8131257,69.9752895 C77.454285,69.9705708 77.0979971,70.0340714 76.7646249,70.1621621 C76.4506184,70.2835358 76.1657451,70.465661 75.9275865,70.6972972 C75.6846269,70.9411472 75.4957554,71.2301666 75.3724978,71.546718 C75.1033292,72.2249321 75.1033292,72.9750676 75.3724978,73.6532817 C75.4955327,73.9699396 75.6844311,74.2590002 75.9275865,74.5027025 C76.1655853,74.7345261 76.4505015,74.9166787 76.7646249,75.0378376 C77.4358752,75.2912321 78.1815652,75.2912321 78.8528155,75.0378376 C79.1819587,74.9205475 79.4820636,74.7382777 79.7339086,74.5027025 C79.9774597,74.259299 80.1664128,73.9701547 80.2889972,73.6532817 C80.5581659,72.9750676 80.5581659,72.2249321 80.2889972,71.546718 C80.1664128,71.229845 79.9774597,70.9407007 79.7339086,70.6972972 C79.4820636,70.461722 79.1819587,70.2794522 78.8528155,70.1621621 C78.5204378,70.0154731 78.1608989,69.9345963 77.7955038,69.9243242 L77.8131257,69.9752895 Z M48.613701,72.523552 C48.613701,69.9752895 46.9748679,68.2764478 44.6223493,68.2764478 C43.0484281,68.2976906 41.6058205,69.1268133 40.8379426,70.4514933 C40.0700648,71.7761733 40.0935758,73.3951603 40.8996192,74.6985975 C41.7056625,76.0020346 43.1717812,76.7918989 44.7457024,76.7706561 C46.0000833,76.8119737 47.2263697,76.4068188 48.1907763,75.6324322 L47.3096832,74.3243241 C46.6139387,74.8622442 45.7520004,75.1611487 44.8602445,75.173745 C43.6006042,75.2781814 42.4835666,74.3970945 42.3403183,73.1861002 L48.5872682,73.1861002 C48.613701,72.973745 48.613701,72.7613898 48.613701,72.523552 L48.613701,72.523552 Z M42.3491292,71.8100385 C42.419851,70.6894399 43.3964275,69.8229857 44.5606728,69.8478764 C45.1145306,69.8364927 45.6503823,70.0377472 46.0502831,70.4073422 C46.450184,70.7769371 46.6813565,71.2845792 46.6929181,71.8185327 L42.3491292,71.8100385 Z M56.3232654,70.5359072 C55.518624,70.089244 54.6084275,69.8494 53.6799862,69.8393822 C52.6755401,69.8393822 52.0763968,70.1961389 52.0763968,70.7907335 C52.0763968,71.3853281 52.7107838,71.4872586 53.5037676,71.5891891 L54.3848607,71.708108 C56.2175343,71.9629342 57.3277116,72.7104246 57.3277116,74.1374516 C57.3277116,75.5644785 55.9179626,76.7876445 53.4949567,76.7876445 C52.1963303,76.820947 50.9208708,76.451766 49.8560422,75.7343627 L50.7371353,74.358301 C51.5457173,74.9366119 52.532629,75.2358055 53.5390113,75.2077218 C54.7901635,75.2077218 55.4597942,74.850965 55.4597942,74.2223936 C55.4597942,73.7637064 54.984004,73.5088801 53.9795579,73.3729728 L53.0984648,73.2540539 C51.2129256,72.9992276 50.1908576,72.1837836 50.1908576,70.8586871 C50.1908576,69.2447876 51.5653628,68.2594594 53.7152299,68.2594594 C54.9184867,68.220594 56.1080432,68.5154001 57.142682,69.1088802 L56.3232654,70.5359072 Z M65.1341962,70.07722 L62.1472907,70.07722 L62.1472907,73.7382238 C62.1472907,74.5876446 62.4468623,75.0972971 63.3631992,75.0972971 C63.9351438,75.0790368 64.4929396,74.9212204 64.9844104,74.6386098 L65.5130663,76.1505789 C64.8260848,76.5638883 64.0320004,76.7817727 63.2222243,76.7791737 C61.0547353,76.7791737 60.2969952,75.6579148 60.2969952,73.7722006 L60.2969952,70.07722 L58.5876747,70.07722 L58.5876747,68.4633204 L60.2969952,68.4633204 L60.2969952,66 L62.1472907,66 L62.1472907,68.4633204 L65.1341962,68.4633204 L65.1341962,70.0772 Z M71.4692555,68.2594594 C71.9137866,68.2611154 72.3547734,68.3358012 72.7732732,68.4803088 L72.2093737,70.1791505 C71.8452072,70.0391763 71.4559565,69.9698978 71.0639527,69.9752895 C69.8656661,69.9752895 69.3017665,70.7227798 69.3017665,72.0648647 L69.3017665,76.6092662 L67.4690929,76.6092662 L67.4690929,68.4972972 L69.2841446,68.4972972 L69.2841446,69.4826254 C69.7422981,68.7239254 70.5942572,68.2676286 71.5044992,68.2934362 L71.4692555,68.2594594 Z M84.139374,75.3945944 C84.2539275,75.3932414 84.3676552,75.4134381 84.4741893,75.4540538 C84.5753765,75.4938611 84.6679986,75.5514693 84.7473282,75.623938 C84.8247491,75.6971762 84.8874772,75.7835665 84.9323577,75.8787643 C85.0225474,76.0792677 85.0225474,76.3068322 84.9323577,76.5073357 C84.8874772,76.6025334 84.8247491,76.6889237 84.7473282,76.7621619 C84.6679986,76.8346306 84.5753765,76.8922388 84.4741893,76.9320461 C84.3687069,76.976917 84.2546687,77.000062 84.139374,76.9999999 C83.7984347,76.9975223 83.4895791,76.8056368 83.3463902,76.5073357 C83.2572448,76.3066245 83.2572448,76.0794754 83.3463902,75.8787643 C83.3912707,75.7835665 83.4539988,75.6971762 83.5314197,75.623938 C83.6107493,75.5514693 83.7033715,75.4938611 83.8045586,75.4540538 C83.8972868,75.4185033 83.9956057,75.3983975 84.0953193,75.3945944 L84.139374,75.3945944 Z M84.139374,76.8301267 C84.2273154,76.8306306 84.3143814,76.8132645 84.394891,76.7791503 C84.470697,76.746522 84.5394469,76.7004152 84.5975424,76.643243 C84.7492593,76.4959354 84.8157515,76.2859136 84.7752182,76.0820375 C84.7346849,75.8781613 84.5923538,75.7067252 84.394891,75.623938 C84.3143019,75.5900643 84.2272893,75.5727088 84.139374,75.5729698 C84.0515346,75.5734203 83.9646691,75.5907464 83.883857,75.623938 C83.8046948,75.6552307 83.7328042,75.7014349 83.6723946,75.7598453 C83.4439299,76.0001526 83.4439299,76.3689589 83.6723946,76.6092662 C83.7956454,76.729575 83.9639779,76.7969371 84.139374,76.7961388 L84.139374,76.8301267 Z M84.1922396,75.8193048 C84.2744908,75.8154594 84.3555421,75.8395018 84.4213238,75.8872585 C84.4760418,75.9309153 84.5055664,75.9973296 84.5006221,76.0656368 C84.5031799,76.1226799 84.4808068,76.1781426 84.4389456,76.2185326 C84.3878758,76.2632512 84.3227265,76.2901686 84.2539161,76.2949805 L84.5094331,76.5752893 L84.3067817,76.5752893 L84.0688865,76.2949805 L83.9895881,76.2949805 L83.9895881,76.5752893 L83.8221805,76.5752893 L83.8221805,75.7938222 L84.1922396,75.8193048 Z M83.9983991,75.9637063 L83.9983991,76.1675673 L84.1922396,76.1675673 C84.2267331,76.1774816 84.2634772,76.1774816 84.2979707,76.1675673 C84.3105376,76.1435247 84.3105376,76.1151621 84.2979707,76.0911195 C84.3105376,76.0670768 84.3105376,76.0387142 84.2979707,76.0146716 C84.2634772,76.0047573 84.2267331,76.0047573 84.1922396,76.0146716 L83.9983991,75.9637063 Z" id="Shape" fill="#000000" fill-rule="nonzero"></path>
    </g>
</svg>