<?xml version="1.0" encoding="UTF-8"?>
<svg width="99px" height="80px" viewBox="0 0 99 80" version="1.1" xmlns="http://www.w3.org/2000/svg" xmlns:xlink="http://www.w3.org/1999/xlink">
    <title>MC wtext</title>
    <g id="MC-wtext" stroke="none" stroke-width="1" fill="none" fill-rule="evenodd">
        <g id="mc_symbol" transform="translate(-6.000000, -6.000000)" fill-rule="nonzero">
            <g id="Group" opacity="0" fill="#FFFFFF">
                <rect id="Rectangle" x="0" y="0" width="110.487045" height="72.916092"></rect>
            </g>
            <rect id="Rectangle" fill="#FF5F00" x="40.6747727" y="12.7036782" width="29.1459091" height="47.5003448"></rect>
            <path d="M43.6768182,36.458046 C43.6695,27.1904035 47.933171,18.4340764 55.2393182,12.712069 C42.8273237,2.97877908 25.0032018,4.39651692 14.2932664,15.9689344 C3.58333099,27.541352 3.58333099,45.3831308 14.2932664,56.9555483 C25.0032018,68.5279658 42.8273237,69.9457037 55.2393182,60.2124138 C47.9308459,54.4885893 43.6669145,45.7286329 43.6768182,36.458046 Z" id="Path" fill="#EB001B"></path>
            <path d="M101.329545,55.177931 L101.329545,54.2045977 L101.75,54.2045977 L101.75,54.0032184 L100.749318,54.0032184 L100.749318,54.2045977 L101.144545,54.2045977 L101.144545,55.177931 L101.329545,55.177931 Z M103.272045,55.177931 L103.272045,54.0032184 L102.969318,54.0032184 L102.616136,54.8422989 L102.262955,54.0032184 L101.960227,54.0032184 L101.960227,55.177931 L102.178864,55.177931 L102.178864,54.2885057 L102.506818,55.052069 L102.733864,55.052069 L103.061818,54.2885057 L103.061818,55.177931 L103.272045,55.177931 Z" id="Shape" fill="#F79E1B"></path>
            <path d="M104.222273,36.458046 C104.222273,48.0234111 97.6038312,58.5733963 87.1785215,63.6273822 C76.7532118,68.6813682 64.3510641,67.3520612 55.2393182,60.204023 C62.5422775,54.4771577 66.8062694,45.7219948 66.8062694,36.4538506 C66.8062694,27.1857064 62.5422775,18.4305434 55.2393182,12.7036782 C64.3510641,5.55563997 76.7532118,4.22633297 87.1785215,9.28031893 C97.6038312,14.3343049 104.222273,24.88429 104.222273,36.4496552 L104.222273,36.458046 Z" id="Path" fill="#F79E1B"></path>
        </g>
        <path d="M17.043036,76.5683451 L17.043036,71.3884891 C17.1038979,70.5072187 16.7839063,69.6422813 16.1646969,69.0143384 C15.5454876,68.3863954 14.6869408,68.0561718 13.8080878,68.1079136 C12.6499024,68.0317247 11.5421868,68.5940982 10.917283,69.5755395 C10.34755,68.6233605 9.3043501,68.0602206 8.19854986,68.1079136 C7.23573752,68.0590736 6.31914951,68.5255089 5.78954584,69.3338129 L5.78954584,68.3151078 L4,68.3151078 L4,76.5683451 L5.80675301,76.5683451 L5.80675301,72.027338 C5.72894078,71.4559051 5.90937457,70.8794449 6.29881552,70.4552686 C6.68825648,70.0310923 7.2460548,69.8034752 7.81999209,69.8345323 C9.00728692,69.8345323 9.60953793,70.6115107 9.60953793,72.0100718 L9.60953793,76.6028775 L11.4162909,76.6028775 L11.4162909,72.027338 C11.3416717,71.4565549 11.5232087,70.8819625 11.9119277,70.4585727 C12.3006466,70.0351828 12.8564994,69.8066152 13.42953,69.8345323 C14.6512392,69.8345323 15.236283,70.6115107 15.236283,72.0100718 L15.236283,76.6028775 L17.043036,76.5683451 Z M43.7743771,68.3151078 L40.8319507,68.3151078 L40.8319507,65.8115108 L39.0251977,65.8115108 L39.0251977,68.3151078 L37.3905164,68.3151078 L37.3905164,69.9553956 L39.0596121,69.9553956 L39.0596121,73.7539566 C39.0596121,75.6705034 39.7995204,76.8100955 41.9160025,76.8100955 C42.7067224,76.8127369 43.4821199,76.59129 44.1529348,76.1712228 L43.6367197,74.6345322 C43.1568145,74.9217635 42.6121452,75.0821604 42.0536599,75.1007192 C41.1933013,75.1007192 40.8663651,74.5482012 40.8663651,73.7194243 L40.8663651,69.9553956 L43.7915842,69.9553956 L43.7743771,68.3151078 Z M59.0371382,68.1079136 C58.1483167,68.081684 57.3164064,68.5454415 56.8690346,69.3165467 L56.8690346,68.3151078 L55.0966959,68.3151078 L55.0966959,76.5683451 L56.8862418,76.5683451 L56.8862418,71.941007 C56.8862418,70.5769783 57.4712856,69.8172661 58.6069589,69.8172661 C58.9897189,69.8120125 59.3697658,69.8824156 59.7254251,70.0244603 L60.2760546,68.2978417 C59.8673602,68.1511343 59.4367791,68.0752322 59.0027239,68.0733812 L59.0371382,68.1079136 Z M35.9623212,68.9712229 C34.9493565,68.3668866 33.7847105,68.0672352 32.6069227,68.1079136 C30.524855,68.1079136 29.1654884,69.1093524 29.1654884,70.7496402 C29.1654884,72.0964027 30.1635044,72.9251797 32.0046717,73.1841725 L32.8650303,73.3050358 C33.8458391,73.4431653 34.3104327,73.7021581 34.3104327,74.1683451 C34.3104327,74.807194 33.6565602,75.169784 32.434851,75.169784 C31.4521516,75.1983268 30.4884646,74.8942412 29.6989107,74.3064746 L28.8385521,75.7050357 C29.8809745,76.4353873 31.1295337,76.8106345 32.4004367,76.7755393 C34.7750263,76.7755393 36.1516001,75.6532372 36.1516001,74.0820142 C36.1516001,72.5107912 35.0675483,71.8719423 33.2780024,71.6129495 L32.4176438,71.4920862 C31.6433211,71.3884891 31.0238629,71.2330934 31.0238629,70.6805754 C31.0238629,70.1280574 31.6089068,69.713669 32.5897155,69.713669 C33.4962544,69.7242359 34.3849362,69.9679754 35.1707913,70.4215826 L35.9623212,68.9712229 Z M83.8928976,68.1079136 C83.004076,68.081684 82.1721658,68.5454415 81.7247939,69.3165467 L81.7247939,68.3151078 L79.9524553,68.3151078 L79.9524553,76.5683451 L81.7420011,76.5683451 L81.7420011,71.941007 C81.7420011,70.5769783 82.3270449,69.8172661 83.4627183,69.8172661 C83.8454782,69.8120125 84.2255251,69.8824156 84.5811844,70.0244603 L85.1318139,68.2978417 C84.7231195,68.1511343 84.2925384,68.0752322 83.8584832,68.0733812 L83.8928976,68.1079136 Z M60.8352877,72.4244603 C60.7922506,73.5972098 61.2437041,74.7338668 62.078836,75.5554316 C62.9139679,76.3769965 64.0554565,76.8074036 65.2231164,76.7410069 C66.2975998,76.7958615 67.3535656,76.4447192 68.1827499,75.7568343 L67.3223913,74.3064746 C66.7037685,74.7798367 65.9494162,75.0402239 65.1714949,75.0489207 C63.7998258,74.9375566 62.7432088,73.7880655 62.7432088,72.4071941 C62.7432088,71.0263227 63.7998258,69.8768316 65.1714949,69.7654675 C65.9494162,69.7741643 66.7037685,70.0345514 67.3223913,70.5079136 L68.1827499,69.0575539 C67.3535656,68.369669 66.2975998,68.0185267 65.2231164,68.0733812 C64.0554565,68.0069845 62.9139679,68.4373917 62.078836,69.2589565 C61.2437041,70.0805214 60.7922506,71.2171784 60.8352877,72.3899279 L60.8352877,72.4244603 Z M77.5950728,72.4244603 L77.5950728,68.3151078 L75.8055269,68.3151078 L75.8055269,69.3165467 C75.1889968,68.5205323 74.2284692,68.0707488 73.2244512,68.1079136 C70.8486366,68.1079136 68.9226583,70.0404974 68.9226583,72.4244603 C68.9226583,74.8084232 70.8486366,76.7410069 73.2244512,76.7410069 C74.2284692,76.7781718 75.1889968,76.3283882 75.8055269,75.5323739 L75.8055269,76.5338127 L77.5950728,76.5338127 L77.5950728,72.4244603 Z M70.9358974,72.4244603 C71.0154762,71.0696418 72.1597075,70.0271439 73.5112866,70.0780481 C74.8628657,70.1289524 75.9259963,71.2545858 75.9041377,72.6115781 C75.8822792,73.9685705 74.7834499,75.0591396 73.4309372,75.0661868 C72.7422538,75.0749307 72.0812277,74.794657 71.6074608,74.2930368 C71.1336939,73.7914165 70.8902463,73.1140412 70.9358974,72.4244603 L70.9358974,72.4244603 Z M49.3408971,68.1079136 C46.9650825,68.1412891 45.0660679,70.100929 45.0993293,72.4848919 C45.1325907,74.8688548 47.0855327,76.7743824 49.4613473,76.7410069 C50.699179,76.8047614 51.9164712,76.4047848 52.8769708,75.6187048L52.0166122,74.2892084 C51.3372404,74.8359238 50.4955859,75.1397156 49.6248154,75.1525178 C48.3948178,75.2586618 47.3040672,74.3631687 47.1641899,73.1323739 L53.2727358,73.1323739 C53.2727358,72.9079135 53.2727358,72.6834531 53.2727358,72.4417265 C53.2727358,69.8517985 51.6724688,68.1251798 49.3667078,68.1251798 L49.3408971,68.1079136 Z M49.3408971,69.713669 C49.881721,69.7020992 50.4049627,69.9066443 50.7954528,70.2822823 C51.1859429,70.6579204 51.4116753,71.1738627 51.4229648,71.7165466 L47.1211719,71.7165466 C47.1859814,70.5638762 48.1565947,69.6742911 49.3064827,69.713669 L49.3408971,69.713669 Z M94.1741826,72.4417265 L94.1741826,65 L92.4534654,65 L92.4534654,69.3165467 C91.8369353,68.5205323 90.8764077,68.0707488 89.8723897,68.1079136 C87.4965751,68.1079136 85.5705968,70.0404974 85.5705968,72.4244603 C85.5705968,74.8084232 87.4965751,76.7410069 89.8723897,76.7410069 C90.8764077,76.7781718 91.8369353,76.3283882 92.4534654,75.5323739 L92.4534654,76.5338127 L94.1741826,76.5338127 L94.1741826,72.4417265 Z M97.1596268,75.3683451 C97.2714846,75.36697 97.382536,75.387497 97.4865631,75.4287768 C97.585369,75.4692349 97.6758115,75.527785 97.7532742,75.6014386 C97.8288733,75.6758743 97.8901252,75.7636772 97.9339495,75.8604314 C98.0220168,76.0642132 98.0220168,76.2954985 97.9339495,76.4992803 C97.8901252,76.5960346 97.8288733,76.6838374 97.7532742,76.7582731 C97.6758115,76.8319267 97.585369,76.8904768 97.4865631,76.930935 C97.383563,26.9765395 97.2722084,27.000063 97.1596268,27 C96.8267108,76.9974818 96.5251234,76.8024589 96.3853041,76.4992803 C96.2982565,76.2952874 96.2982565,76.0644243 96.3853041,75.8604314 C96.4291285,75.7636772 96.4903804,75.6758743 96.5659794,75.6014386 C96.6434421,75.527785 96.7338846,75.4692349 96.8326906,75.4287768 C96.9447522,75.3840473 97.0649338,75.3634581 97.1854376,75.3683451 L97.1596268,75.3683451 Z M97.1596268,76.8273379 C97.2454988,76.8278613 97.3305158,76.8102113 97.4091308,76.7755393 C97.483153,76.7423775 97.5502849,76.6955168 97.6070133,76.6374098 C97.8301017,76.3931734 97.8301017,76.0183369 97.6070133,75.7741005 C97.5504202,75.7158332 97.4832557,75.6689499 97.4091308,75.635971 C97.3304382,75.6015434 97.2454733,75.5839042 97.1596268,75.5841694 C97.0738545,75.5846273 96.9890333,75.6022367 96.9101228,75.635971 C96.8328236,75.6677753 96.7626248,75.7147351 96.7036368,75.7741005 C96.4805484,76.0183369 96.4805484,76.3931734 96.7036368,76.6374098 C96.7627697,76.6965979 96.832931,76.7435325 96.9101228,76.7755393 C96.9969242,76.8131001 97.0909717,76.8307945 97.1854376,76.8273379 L97.1596268,76.8273379 Z M97.2112483,75.7999998 C97.291564,75.7960915 97.370708,75.820527 97.4349416,75.8690645 C97.4883719,75.9134351 97.5172017,75.9809354 97.5123738,76.0503595 C97.5148714,76.1083352 97.4930248,76.1647048 97.4521487,76.2057552 C97.4022807,76.2512049 97.3386646,76.2785625 97.2714734,76.283453 L97.5209774,76.5683451 L97.323095,76.5683451 L97.0907981,76.283453 L97.0133659,76.283453 L97.0133659,76.5683451 L96.8498977,76.5683451 L96.8498977,75.8086329 L97.2112483,75.7999998 Z M97.0219695,75.9467624 L97.0219695,76.1539566 L97.2112483,76.1539566 C97.2449301,76.164033 97.2808096,76.164033 97.3144914,76.1539566 C97.3267625,76.1295208 97.3267625,76.1006945 97.3144914,76.0762588 C97.3267625,76.051823 97.3267625,76.0229967 97.3144914,75.9985609 C97.2808096,75.9884845 97.2449301,75.9884845 97.2112483,75.9985609 L97.0219695,75.9467624 Z" id="Shape" fill="#F79E1B"></path>
    </g>
</svg>